<?xml version="1.0" encoding="UTF-8" standalone="no"?>
<svg
   xmlns:dc="http://purl.org/dc/elements/1.1/"
   xmlns:cc="http://creativecommons.org/ns#"
   xmlns:rdf="http://www.w3.org/1999/02/22-rdf-syntax-ns#"
   xmlns:svg="http://www.w3.org/2000/svg"
   xmlns="http://www.w3.org/2000/svg"
   xmlns:sodipodi="http://sodipodi.sourceforge.net/DTD/sodipodi-0.dtd"
   xmlns:inkscape="http://www.inkscape.org/namespaces/inkscape"
   viewBox="0 0 397.53488 397.53489"
   height="397.53488"
   width="397.53488"
   xml:space="preserve"
   id="svg2"
   version="1.1"
   sodipodi:docname="Logoywam-square.svg"
   inkscape:version="0.92.3 (2405546, 2018-03-11)">
   <sodipodi:namedview
      pagecolor="#ffffff"
      bordercolor="#666666"
      borderopacity="1"
      objecttolerance="10"
      gridtolerance="10"
      guidetolerance="10"
      inkscape:pageopacity="0"
      inkscape:pageshadow="2"
      inkscape:window-width="1843"
      inkscape:window-height="1295"
      id="namedview11"
      showgrid="false"
      inkscape:zoom="0.74549704"
      inkscape:cx="198.76744"
      inkscape:cy="158.28366"
      inkscape:window-x="0"
      inkscape:window-y="0"
      inkscape:window-maximized="0"
      inkscape:current-layer="svg2" />
   <metadata id="metadata8">
      <rdf:RDF>
         <cc:Work rdf:about="">
            <dc:format>image/svg+xml</dc:format>
            <dc:type rdf:resource="http://purl.org/dc/dcmitype/StillImage" />
            <dc:title></dc:title>
         </cc:Work>
      </rdf:RDF>
   </metadata>
   <defs id="defs6" />
   <g transform="matrix(1.3333333,0,0,-1.3333333,-2.6317733,361.69272)" id="g10">
      <g transform="scale(0.1)" id="g12">
         <!-- Note: All fills changed from #231f20 to #ffffff -->
         <path
            id="path14"
            style="fill:#ffffff;fill-opacity:1;fill-rule:evenodd;stroke:none"
            d="m 1178.63,2387.13 c -280.239,0 -545.7,-35.76 -782.896,-99.65 152.36,23.35 312.653,35.81 478.082,35.81 1006.614,0 1817.844,-461.46 1817.844,-1030.94 0,-409.842 -472.29,-729.088 -1138.44,-815.166 901.92,5.613 1448.03,404.722 1448.03,879.336 0,569.2 -816,1030.61 -1822.62,1030.61 v 0 0"
            inkscape:connector-curvature="0" />
         <path
            id="path16"
            style="fill:#ffffff;fill-opacity:1;fill-rule:evenodd;stroke:none"
            d="m 945.035,1602.91 c 142.265,0 277.035,-18.16 397.455,-50.59 -77.35,11.86 -158.72,18.18 -242.71,18.18 -511.034,0 -910.589,-234.59 -910.589,-523.75 0,-208.109 204.766,-399.191 876.789,-548.949 C 744.004,509.031 459.488,613.078 299.348,695.383 83.8633,806.133 19.7383,941.469 19.7383,1079.7 c 0,288.96 414.2617,523.21 925.2967,523.21 v 0 0"
            inkscape:connector-curvature="0" />
         <path
            id="path18"
            style="fill:#ffffff;fill-opacity:1;fill-rule:evenodd;stroke:none"
            d="m 895.492,998.484 c 96.754,145.846 228.468,268.726 372.058,349.896 -37.78,-116.24 17.49,-410.915 199,-410.915 181.5,0 420.74,294.675 460.56,410.915 89.39,-81.17 139.06,-204.05 138.44,-349.896 -9.99,0.887 -20.19,1.336 -30.62,1.336 -284.62,0 -704.61,-554.472 -883.45,-986.945 0.74,0.707 2.08,6.9844 2.11,6.332 109.92,432.477 58.04,980.613 -226.59,980.613 -10.422,0 -20.93,-0.449 -31.508,-1.336 v 0 0"
            inkscape:connector-curvature="0" />
         <path
            id="path20"
            style="fill:#ffffff;fill-opacity:1;fill-rule:evenodd;stroke:none"
            d="m 1368.53,1242.24 c 38.08,114.05 161.4,206.5 275.45,206.5 114.05,0 175.63,-92.45 137.55,-206.5 -38.08,-114.06 -161.4,-206.51 -275.45,-206.51 -114.05,0 -175.63,92.45 -137.55,206.51 v 0 0"
            inkscape:connector-curvature="0" />
      </g>
   </g>
</svg>
